#!OML:ASF F:\VICON\USERDATA\INSTALL\rory3\rory3.ASF
:FULLY-SPECIFIED
:DEGREES
206
root -12.5514 17.3692 0.956263 -94.4862 87.1999 -92.0475
lowerback 13.3941 1.39393 -1.87376
upperback 0.489424 1.7091 1.38688
thorax -7.10273 0.938019 2.19786
lowerneck -16.9706 -8.85446 -13.3752
upperneck 29.228 -11.8312 11.3426
head 14.4567 -4.9807 4.78423
rclavicle 2.60035e-014 1.94809e-014
rhumerus -39.326 -21.2287 -73.4665
rradius 31.84
rwrist 8.9521
rhand -19.0039 4.29996
rfingers 7.12502
rthumb 7.30138 -25.5541
lclavicle 2.60035e-014 1.94809e-014
lhumerus -35.5719 9.75604 73.5632
lradius 36.9183
lwrist -4.14219
lhand -16.5212 25.2199
lfingers 7.12502
lthumb 9.69734 54.9767
rfemur 0.0133587 -1.29307 8.75318
rtibia 23.8807
rfoot -16.8329 3.26181
rtoes -17.2527
lfemur -3.56535 -14.1023 -1.5999
ltibia 25.5164
lfoot -10.9853 2.87305
ltoes -17.3529
207
root -12.558 17.3924 1.08589 -92.1956 87.1552 -89.9563
lowerback 13.2128 1.50578 -1.84765
upperback 0.492109 1.86087 1.35524
thorax -7.00442 1.00933 2.12322
lowerneck -16.9276 -8.86429 -13.3793
upperneck 29.1982 -11.8721 11.4271
head 14.4484 -4.98883 4.8126
rclavicle -1.03492e-014 -8.34896e-015
rhumerus -39.1047 -21.1416 -73.639
rradius 31.9058
rwrist 8.60442
rhand -18.419 4.32646
rfingers 7.12502
rthumb 7.86592 -25.5072
lclavicle -1.03492e-014 -8.34896e-015
lhumerus -35.4445 9.81092 73.6139
lradius 36.9647
lwrist -3.82672
lhand -16.8948 25.3592
lfingers 7.12502
lthumb 9.33682 55.1325
rfemur -0.0205728 -1.25231 9.25896
rtibia 23.5097
rfoot -17.0972 3.4718
rtoes -17.5369
lfemur -4.00251 -13.9021 -1.27515
ltibia 25.9763
lfoot -10.0241 3.62562
ltoes -16.7329
208
root -12.571 17.412 1.21995 -91.3109 86.9863 -89.1997
lowerback 13.2053 1.57528 -1.74882
upperback 0.489446 1.96945 1.37111
thorax -7.00607 1.05939 2.06323
lowerneck -16.962 -8.84082 -13.3707
upperneck 29.2479 -11.856 11.4869
head 14.4801 -4.97024 4.84182
rclavicle 8.92046e-015 1.90833e-014
rhumerus -38.8255 -21.2585 -73.7464
rradius 31.7474
rwrist 8.72
rhand -18.0284 4.69993
rfingers 7.12502
rthumb 8.24288 -25.1193
lclavicle 8.92046e-015 1.90833e-014
lhumerus -35.3383 10.0628 73.6061
lradius 36.9671
lwrist -3.76415
lhand -17.4397 25.4456
lfingers 7.12502
lthumb 8.81109 55.2417
rfemur 0.04383 -0.65358 10.0043
rtibia 23.1565
rfoot -17.318 3.12584
rtoes -18.7273
lfemur -4.50934 -13.4813 -0.817516
ltibia 26.5666
lfoot -8.91051 4.28896
ltoes -17.781
209
root -12.5844 17.4325 1.35248 -90.6855 86.8053 -88.6446
lowerback 13.2809 1.59946 -1.63172
upperback 0.46997 2.01943 1.38282
thorax -7.06823 1.08073 1.99791
lowerneck -16.983 -8.75162 -13.2585
upperneck 29.3309 -11.7308 11.4034
head 14.4843 -4.9116 4.81654
rclavicle 3.72721e-016 6.75868e-015
rhumerus -38.5832 -21.1062 -73.9886
rradius 31.5452
rwrist 8.88884
rhand -17.8679 4.99542
rfingers 7.12502
rthumb 8.39787 -24.8176
lclavicle 3.72721e-016 6.75868e-015
lhumerus -35.3404 10.4281 73.5094
lradius 37.0187
lwrist -3.71749
lhand -17.7952 25.6321
lfingers 7.12502
lthumb 8.46795 55.4423
rfemur 0.153261 0.0974503 10.7442
rtibia 22.7953
rfoot -17.354 2.86838
rtoes -18.3834
lfemur -5.00205 -13.1991 -0.442189
ltibia 27.2868
lfoot -7.70973 5.13427
ltoes -18.4571
210
root -12.5987 17.4615 1.47756 -91.2817 86.7324 -89.3045
lowerback 13.3899 1.6051 -1.5627
upperback 0.43811 2.03416 1.35685
thorax -7.16078 1.08582 1.92575
lowerneck -16.9999 -8.67038 -13.0311
upperneck 29.4747 -11.6142 11.1897
head 14.4963 -4.8588 4.7172
rclavicle -1.35422e-015 1.19271e-015
rhumerus -38.409 -20.7145 -74.305
rradius 31.4284
rwrist 8.77099
rhand -17.7954 5.24552
rfingers 7.12502
rthumb 8.46777 -24.5647
lclavicle -1.35422e-015 1.19271e-015
lhumerus -35.3616 10.6581 73.4601
lradius 37.0542
lwrist -3.5656
lhand -18.0537 25.6475
lfingers 7.12502
lthumb 8.21855 55.4676
rfemur 0.261248 0.501419 11.2853
rtibia 22.4134
rfoot -17.4198 2.98442
rtoes -17.6049
lfemur -5.5528 -13.2053 -0.249187
ltibia 28.14
lfoot -6.62163 5.99888
ltoes -16.1486
